<svg width="738" height="279" viewBox="0 0 738 279" fill="none" xmlns="http://www.w3.org/2000/svg">
  <rect width="738" height="278.232" fill="white" />
  <path
    d="M351.75 123.787H357.375V176.561H354.797L321.125 135.232V175.779H315.539V123.787H318.078L351.75 165.154V123.787ZM377.492 127.303C376.607 128.214 375.513 128.67 374.211 128.67C372.935 128.67 371.841 128.214 370.93 127.303C370.044 126.391 369.602 125.298 369.602 124.021C369.602 122.745 370.044 121.652 370.93 120.74C371.841 119.829 372.935 119.373 374.211 119.373C375.513 119.373 376.607 119.829 377.492 120.74C378.404 121.652 378.859 122.745 378.859 124.021C378.859 125.298 378.404 126.391 377.492 127.303ZM371.438 175.779V135.779H377.023V175.779H371.438ZM409.641 169.842L411.555 173.553L411.398 174.021C409.107 175.844 406.516 176.756 403.625 176.756C400.057 176.756 397.232 175.675 395.148 173.514C393.065 171.352 392.023 168.24 392.023 164.178V140.584H385.305V135.779H392.023V123.553L397.219 122.811L397.609 123.123V135.779H410.188V140.584H397.609V164.1C397.609 169.178 399.771 171.717 404.094 171.717C406.177 171.717 407.857 171.04 409.133 169.686L409.641 169.842ZM439.992 135.936L440.227 136.404L438.391 140.818L437.883 141.053C436.919 140.402 435.539 140.089 433.742 140.115C430.852 140.115 428.534 141.326 426.789 143.748C425.07 146.17 424.211 149.243 424.211 152.967V175.779H418.625V135.779H423.977V141.131C426.32 136.912 429.862 134.803 434.602 134.803C436.555 134.803 438.352 135.18 439.992 135.936ZM477.688 170.701C473.677 174.738 468.625 176.756 462.531 176.756C456.464 176.756 451.411 174.738 447.375 170.701C443.365 166.665 441.359 161.691 441.359 155.779C441.359 149.868 443.365 144.894 447.375 140.857C451.411 136.821 456.464 134.803 462.531 134.803C468.625 134.803 473.677 136.821 477.688 140.857C481.724 144.894 483.742 149.868 483.742 155.779C483.742 161.691 481.724 166.665 477.688 170.701ZM451.477 167.146C454.393 170.141 458.091 171.639 462.57 171.639C467.049 171.639 470.734 170.141 473.625 167.146C476.542 164.152 478 160.363 478 155.779C478 151.196 476.542 147.407 473.625 144.412C470.734 141.417 467.049 139.92 462.57 139.92C458.091 139.92 454.393 141.417 451.477 144.412C448.56 147.407 447.102 151.196 447.102 155.779C447.102 160.363 448.56 164.152 451.477 167.146ZM524.68 135.779H530.031V170.115C530.031 176.183 528.156 180.779 524.406 183.904C520.682 187.029 516.047 188.592 510.5 188.592C506.594 188.592 503 187.785 499.719 186.17C496.464 184.581 493.846 182.42 491.867 179.686V179.217L495.383 176.248H495.852C499.367 181.092 504.25 183.527 510.5 183.553C514.667 183.553 518.026 182.433 520.578 180.193C523.13 177.954 524.406 174.646 524.406 170.271V166.678C520.891 170.636 516.177 172.602 510.266 172.576C504.615 172.576 499.914 170.766 496.164 167.146C492.44 163.527 490.578 159.048 490.578 153.709C490.578 148.318 492.44 143.826 496.164 140.232C499.914 136.613 504.641 134.803 510.344 134.803C516.359 134.803 521.138 136.86 524.68 140.975V135.779ZM510.5 167.459C514.719 167.459 518.13 166.183 520.734 163.631C523.365 161.053 524.68 157.771 524.68 153.787C524.68 149.725 523.352 146.404 520.695 143.826C518.065 141.222 514.641 139.92 510.422 139.92C506.255 139.92 502.87 141.222 500.266 143.826C497.661 146.404 496.359 149.699 496.359 153.709C496.359 157.771 497.648 161.079 500.227 163.631C502.805 166.183 506.229 167.459 510.5 167.459ZM579.562 157.459H545.734C546.047 161.886 547.648 165.363 550.539 167.889C553.456 170.389 556.893 171.639 560.852 171.639C563.352 171.639 565.904 171.105 568.508 170.037C571.138 168.969 573.195 167.472 574.68 165.545H575.148L578.586 168.436V168.904C576.711 171.456 574.133 173.41 570.852 174.764C567.596 176.092 564.315 176.756 561.008 176.756C555.305 176.756 550.357 174.881 546.164 171.131C541.971 167.355 539.875 162.29 539.875 155.936C539.875 149.92 541.789 144.894 545.617 140.857C549.471 136.821 554.25 134.803 559.953 134.803C565.448 134.803 570.031 136.6 573.703 140.193C577.714 144.1 579.719 149.035 579.719 154.998C579.719 155.883 579.667 156.704 579.562 157.459ZM559.953 139.92C556.177 139.92 553.013 141.053 550.461 143.318C547.935 145.558 546.411 148.566 545.891 152.342H573.977C573.508 148.93 572.219 146.157 570.109 144.021C567.661 141.287 564.276 139.92 559.953 139.92ZM607.961 134.803C612.987 134.803 616.971 136.339 619.914 139.412C622.883 142.485 624.367 146.469 624.367 151.365V175.779H618.703V151.951C618.703 148.279 617.661 145.35 615.578 143.162C613.495 140.949 610.669 139.842 607.102 139.842C603.482 139.842 600.526 140.949 598.234 143.162C595.969 145.376 594.836 148.305 594.836 151.951V175.779H589.172V135.779H594.523V141.053C597.57 136.886 602.049 134.803 607.961 134.803Z"
    fill="#101828" />
  <path
    d="M652.188 172.072C649.93 172.072 648.02 171.299 646.457 169.752C644.902 168.205 644.125 166.279 644.125 163.975C644.125 161.67 644.906 159.748 646.469 158.209C648.031 156.662 649.938 155.889 652.188 155.889C653.5 155.889 654.711 156.166 655.82 156.721C656.938 157.275 657.871 158.037 658.621 159.006V159.158L657.496 160.014H657.355C656.777 159.217 656.039 158.596 655.141 158.15C654.25 157.697 653.281 157.471 652.234 157.471C650.43 157.471 648.918 158.084 647.699 159.311C646.488 160.537 645.883 162.096 645.883 163.986C645.883 165.869 646.488 167.424 647.699 168.65C648.918 169.869 650.43 170.479 652.234 170.479C653.273 170.479 654.242 170.256 655.141 169.811C656.039 169.365 656.777 168.74 657.355 167.936H657.496L658.621 168.803V168.943C657.871 169.92 656.938 170.686 655.82 171.24C654.711 171.795 653.5 172.072 652.188 172.072ZM671.113 170.244V171.779H661.645V156.182H663.367V170.244H671.113ZM673.715 156.182H675.438V171.779H673.715V156.182Z"
    fill="#475467" />
  <path
    d="M110.856 217.938C82.5105 216.578 60 193.08 60 164.357C60 138.514 78.2152 116.912 102.513 111.84C110.058 82.0619 136.937 60 169 60C201.063 60 227.942 82.0619 235.487 111.84C259.785 116.912 278 138.514 278 164.357C278 192.84 255.865 216.184 227.855 217.899C223.188 218.364 218.593 214.774 218.593 209.934C218.593 205.277 222.661 201.918 227 201.918L227.042 201.918C246.534 200.632 262 184.334 262 164.357C262 144.729 247.062 128.644 228.054 126.876C224.428 126.539 221.488 123.796 220.9 120.203C216.791 95.1054 195.089 76 169 76C142.911 76 121.209 95.1054 117.1 120.203C116.512 123.796 113.572 126.539 109.946 126.876C90.9379 128.644 76 144.729 76 164.357C76 184.409 91.5832 200.755 111.18 201.932L116.697 202.215C121.119 202.215 124.983 205.65 124.983 210.224C124.983 214.797 121.119 218.232 116.697 218.232C114.709 218.232 113.441 218.062 110.856 217.938Z"
    fill="url(#paint0_linear_3475_54365)" />
  <path d="M171.751 156.804L147.982 129H141V175.726H152.179V148.133L176.018 175.937H183.035V129H171.751V156.804Z"
    fill="#101828" />
  <path
    d="M199.426 185.523C202.537 182.617 204.822 180.342 206.239 178.678C208.757 175.645 210.006 172.822 210.006 170.21C210.006 167.619 209.117 165.534 207.34 163.912C205.562 162.311 203.235 161.511 200.378 161.511C196.083 161.511 192.592 163.112 189.862 166.292V166.798L193.015 170.084H193.502C195.216 167.893 197.205 166.798 199.469 166.798C201.902 166.798 203.552 168.272 203.552 170.526C203.552 172.148 202.325 174.212 199.871 176.719C199.045 177.582 197.543 179.078 195.343 181.184C193.121 183.312 191.365 185.018 190.074 186.303V191H211V185.523H199.426Z"
    fill="#101828" />
  <defs>
    <linearGradient id="paint0_linear_3475_54365" x1="279.944" y1="139.116" x2="60" y2="139.116"
      gradientUnits="userSpaceOnUse">
      <stop stop-color="#007AFD" />
      <stop offset="0.427083" stop-color="#8A2DB8" />
      <stop offset="1" stop-color="#FD47BC" />
    </linearGradient>
  </defs>
</svg>