<svg width="618" height="159" viewBox="0 0 618 159" fill="none" xmlns="http://www.w3.org/2000/svg">
  <path
    d="M291.75 63.7871H297.375V116.561H294.797L261.125 75.2324V115.779H255.539V63.7871H258.078L291.75 105.154V63.7871ZM317.492 67.3027C316.607 68.2142 315.513 68.6699 314.211 68.6699C312.935 68.6699 311.841 68.2142 310.93 67.3027C310.044 66.3913 309.602 65.2975 309.602 64.0215C309.602 62.7454 310.044 61.6517 310.93 60.7402C311.841 59.8288 312.935 59.373 314.211 59.373C315.513 59.373 316.607 59.8288 317.492 60.7402C318.404 61.6517 318.859 62.7454 318.859 64.0215C318.859 65.2975 318.404 66.3913 317.492 67.3027ZM311.438 115.779V75.7793H317.023V115.779H311.438ZM349.641 109.842L351.555 113.553L351.398 114.021C349.107 115.844 346.516 116.756 343.625 116.756C340.057 116.756 337.232 115.675 335.148 113.514C333.065 111.352 332.023 108.24 332.023 104.178V80.584H325.305V75.7793H332.023V63.5527L337.219 62.8105L337.609 63.123V75.7793H350.188V80.584H337.609V104.1C337.609 109.178 339.771 111.717 344.094 111.717C346.177 111.717 347.857 111.04 349.133 109.686L349.641 109.842ZM379.992 75.9355L380.227 76.4043L378.391 80.8184L377.883 81.0527C376.919 80.4017 375.539 80.0892 373.742 80.1152C370.852 80.1152 368.534 81.3262 366.789 83.748C365.07 86.1699 364.211 89.2428 364.211 92.9668V115.779H358.625V75.7793H363.977V81.1309C366.32 76.9121 369.862 74.8027 374.602 74.8027C376.555 74.8027 378.352 75.1803 379.992 75.9355ZM417.688 110.701C413.677 114.738 408.625 116.756 402.531 116.756C396.464 116.756 391.411 114.738 387.375 110.701C383.365 106.665 381.359 101.691 381.359 95.7793C381.359 89.8678 383.365 84.8939 387.375 80.8574C391.411 76.821 396.464 74.8027 402.531 74.8027C408.625 74.8027 413.677 76.821 417.688 80.8574C421.724 84.8939 423.742 89.8678 423.742 95.7793C423.742 101.691 421.724 106.665 417.688 110.701ZM391.477 107.146C394.393 110.141 398.091 111.639 402.57 111.639C407.049 111.639 410.734 110.141 413.625 107.146C416.542 104.152 418 100.363 418 95.7793C418 91.196 416.542 87.4069 413.625 84.4121C410.734 81.4173 407.049 79.9199 402.57 79.9199C398.091 79.9199 394.393 81.4173 391.477 84.4121C388.56 87.4069 387.102 91.196 387.102 95.7793C387.102 100.363 388.56 104.152 391.477 107.146ZM464.68 75.7793H470.031V110.115C470.031 116.183 468.156 120.779 464.406 123.904C460.682 127.029 456.047 128.592 450.5 128.592C446.594 128.592 443 127.785 439.719 126.17C436.464 124.581 433.846 122.42 431.867 119.686V119.217L435.383 116.248H435.852C439.367 121.092 444.25 123.527 450.5 123.553C454.667 123.553 458.026 122.433 460.578 120.193C463.13 117.954 464.406 114.646 464.406 110.271V106.678C460.891 110.636 456.177 112.602 450.266 112.576C444.615 112.576 439.914 110.766 436.164 107.146C432.44 103.527 430.578 99.0475 430.578 93.709C430.578 88.3184 432.44 83.8262 436.164 80.2324C439.914 76.6126 444.641 74.8027 450.344 74.8027C456.359 74.8027 461.138 76.86 464.68 80.9746V75.7793ZM450.5 107.459C454.719 107.459 458.13 106.183 460.734 103.631C463.365 101.053 464.68 97.7715 464.68 93.7871C464.68 89.7246 463.352 86.4043 460.695 83.8262C458.065 81.222 454.641 79.9199 450.422 79.9199C446.255 79.9199 442.87 81.222 440.266 83.8262C437.661 86.4043 436.359 89.6986 436.359 93.709C436.359 97.7715 437.648 101.079 440.227 103.631C442.805 106.183 446.229 107.459 450.5 107.459ZM519.562 97.459H485.734C486.047 101.886 487.648 105.363 490.539 107.889C493.456 110.389 496.893 111.639 500.852 111.639C503.352 111.639 505.904 111.105 508.508 110.037C511.138 108.969 513.195 107.472 514.68 105.545H515.148L518.586 108.436V108.904C516.711 111.456 514.133 113.41 510.852 114.764C507.596 116.092 504.315 116.756 501.008 116.756C495.305 116.756 490.357 114.881 486.164 111.131C481.971 107.355 479.875 102.29 479.875 95.9355C479.875 89.9199 481.789 84.8939 485.617 80.8574C489.471 76.821 494.25 74.8027 499.953 74.8027C505.448 74.8027 510.031 76.5996 513.703 80.1934C517.714 84.0996 519.719 89.0345 519.719 94.998C519.719 95.8835 519.667 96.7038 519.562 97.459ZM499.953 79.9199C496.177 79.9199 493.013 81.0527 490.461 83.3184C487.935 85.5579 486.411 88.5658 485.891 92.3418H513.977C513.508 88.9303 512.219 86.1569 510.109 84.0215C507.661 81.2871 504.276 79.9199 499.953 79.9199ZM547.961 74.8027C552.987 74.8027 556.971 76.3392 559.914 79.4121C562.883 82.485 564.367 86.4694 564.367 91.3652V115.779H558.703V91.9512C558.703 88.2793 557.661 85.3496 555.578 83.1621C553.495 80.9486 550.669 79.8418 547.102 79.8418C543.482 79.8418 540.526 80.9486 538.234 83.1621C535.969 85.3757 534.836 88.3053 534.836 91.9512V115.779H529.172V75.7793H534.523V81.0527C537.57 76.8861 542.049 74.8027 547.961 74.8027Z"
    fill="#101828" />
  <path
    d="M592.188 112.072C589.93 112.072 588.02 111.299 586.457 109.752C584.902 108.205 584.125 106.279 584.125 103.975C584.125 101.67 584.906 99.748 586.469 98.209C588.031 96.6621 589.938 95.8887 592.188 95.8887C593.5 95.8887 594.711 96.166 595.82 96.7207C596.938 97.2754 597.871 98.0371 598.621 99.0059V99.1582L597.496 100.014H597.355C596.777 99.2168 596.039 98.5957 595.141 98.1504C594.25 97.6973 593.281 97.4707 592.234 97.4707C590.43 97.4707 588.918 98.084 587.699 99.3105C586.488 100.537 585.883 102.096 585.883 103.986C585.883 105.869 586.488 107.424 587.699 108.65C588.918 109.869 590.43 110.479 592.234 110.479C593.273 110.479 594.242 110.256 595.141 109.811C596.039 109.365 596.777 108.74 597.355 107.936H597.496L598.621 108.803V108.943C597.871 109.92 596.938 110.686 595.82 111.24C594.711 111.795 593.5 112.072 592.188 112.072ZM611.113 110.244V111.779H601.645V96.1816H603.367V110.244H611.113ZM613.715 96.1816H615.438V111.779H613.715V96.1816Z"
    fill="#475467" />
  <path
    d="M50.8562 157.938C22.5105 156.578 0 133.08 0 104.357C0 78.5138 18.2152 56.912 42.5131 51.8396C50.0584 22.0619 76.9372 0 109 0C141.063 0 167.942 22.0619 175.487 51.8396C199.785 56.912 218 78.5138 218 104.357C218 132.84 195.865 156.184 167.855 157.899C163.188 158.364 158.593 154.774 158.593 149.934C158.593 145.277 162.661 141.918 167 141.918L167.042 141.918C186.534 140.632 202 124.334 202 104.357C202 84.7286 187.062 68.6443 168.054 66.8764C164.428 66.5392 161.488 63.7964 160.9 60.2032C156.791 35.1054 135.089 16 109 16C82.9111 16 61.2088 35.1054 57.1003 60.2032C56.5121 63.7964 53.5717 66.5392 49.9463 66.8764C30.9379 68.6443 16 84.7286 16 104.357C16 124.409 31.5832 140.755 51.1799 141.932L56.6972 142.215C61.1189 142.215 64.983 145.65 64.983 150.224C64.983 154.797 61.119 158.232 56.6972 158.232C54.7092 158.232 53.441 158.062 50.8562 157.938Z"
    fill="url(#paint0_linear_3472_53537)" />
  <path d="M111.751 96.8042L87.9824 69H81V115.726H92.1788V88.1329L116.018 115.937H123.035V69H111.751V96.8042Z"
    fill="#101828" />
  <path
    d="M139.426 125.523C142.537 122.617 144.822 120.342 146.239 118.678C148.757 115.645 150.006 112.822 150.006 110.21C150.006 107.619 149.117 105.534 147.34 103.912C145.562 102.311 143.235 101.511 140.378 101.511C136.083 101.511 132.592 103.112 129.862 106.292V106.798L133.015 110.084H133.502C135.216 107.893 137.205 106.798 139.469 106.798C141.902 106.798 143.552 108.272 143.552 110.526C143.552 112.148 142.325 114.212 139.871 116.719C139.045 117.582 137.543 119.078 135.343 121.184C133.121 123.312 131.365 125.018 130.074 126.303V131H151V125.523H139.426Z"
    fill="#101828" />
  <defs>
    <linearGradient id="paint0_linear_3472_53537" x1="219.944" y1="79.1162" x2="-7.60239e-06" y2="79.1162"
      gradientUnits="userSpaceOnUse">
      <stop stop-color="#007AFD" />
      <stop offset="0.427083" stop-color="#8A2DB8" />
      <stop offset="1" stop-color="#FD47BC" />
    </linearGradient>
  </defs>
</svg>